<svg width="400" height="200" viewBox="0 0 800 160" xmlns="http://www.w3.org/2000/svg">
  <!-- Official MongoDB logo -->
  <defs>
    <linearGradient id="mongoGradient" x1="0%" y1="0%" x2="0%" y2="100%">
      <stop offset="0%" style="stop-color:#4FAA41"/>
      <stop offset="100%" style="stop-color:#3F7F3A"/>
    </linearGradient>
  </defs>
  
  <!-- Center the logo -->
  <g transform="translate(50, 20) scale(3)">
    
    <!-- MongoDB leaf icon - simplified official version -->
    <g transform="translate(0, 10) scale(1.2)">
      <!-- Main leaf shape -->
      <path d="M12 2c-3.2 2.1-8 7.2-8 16.5 0 7.8 3.2 14.2 7.8 17.8l0.2 0.2v4.3c0 0.4 0.2 0.6 0.5 0.6s0.5-0.2 0.5-0.6V36.5l0.2-0.2C17.8 32.7 21 26.3 21 18.5 21 9.2 15.2 4.1 12 2z"
            fill="url(#mongoGradient)"/>
      
      <!-- Center line detail -->
      <path d="M12.5 36.5c0 2.1 0 3.5 0 4.3 0 0.2-0.1 0.4-0.2 0.4-0.1 0-0.2-0.2-0.2-0.4 0-0.8 0-2.2 0-4.3 0 0 0.2 0.1 0.2 0.1S12.5 36.5 12.5 36.5z"
            fill="#3F7F3A"/>
    </g>
    
    <!-- MongoDB text -->
    <g transform="translate(60, 5)">
      <text x="0" y="30" font-family="'Trebuchet MS', Arial, sans-serif" font-size="38" font-weight="bold" fill="#4FAA41">MongoDB</text>
    </g>
    
  </g>
</svg>